<?xml version="1.0" standalone="no"?>
<!DOCTYPE svg PUBLIC "-//W3C//DTD SVG 20010904//EN"
 "http://www.w3.org/TR/2001/REC-SVG-20010904/DTD/svg10.dtd">
<svg version="1.0" xmlns="http://www.w3.org/2000/svg"
 width="50.000000pt" height="50.000000pt" viewBox="0 0 50.000000 50.000000"
 preserveAspectRatio="xMidYMid meet">

<g transform="translate(0.000000,50.000000) scale(0.100000,-0.100000)"
fill="#000000" stroke="none">
<path d="M210 465 c0 -8 -4 -15 -10 -15 -5 0 -10 5 -10 10 0 6 -4 10 -10 10
-16 0 -11 -19 10 -37 11 -10 20 -30 20 -45 0 -16 5 -28 10 -28 6 0 10 12 10
28 0 15 9 35 20 45 21 18 26 37 10 37 -5 0 -10 -4 -10 -10 0 -5 -4 -10 -10
-10 -5 0 -10 7 -10 15 0 8 -4 15 -10 15 -5 0 -10 -7 -10 -15z"/>
<path d="M414 450 c-4 -16 -15 -32 -25 -35 -11 -4 -19 -11 -19 -16 0 -12 27
-12 35 0 3 5 21 7 40 4 23 -4 35 -2 35 6 0 6 -3 10 -7 10 -21 -3 -24 3 -12 18
13 15 12 16 -9 11 -19 -5 -22 -3 -17 13 4 11 2 19 -5 19 -6 0 -13 -13 -16 -30z"/>
<path d="M130 379 c0 -18 -2 -19 -15 -9 -20 17 -32 5 -15 -15 10 -13 9 -15 -9
-15 -14 0 -20 -4 -15 -11 3 -6 17 -9 30 -6 26 5 71 -34 59 -52 -11 -18 -59
-12 -78 9 -18 21 -37 26 -37 10 0 -5 5 -10 10 -10 6 0 10 -4 10 -10 0 -5 -7
-10 -15 -10 -8 0 -15 -4 -15 -10 0 -5 7 -10 15 -10 8 0 15 -4 15 -10 0 -5 -4
-10 -10 -10 -5 0 -10 -4 -10 -10 0 -16 19 -11 37 10 19 21 67 27 78 9 12 -18
-33 -57 -59 -52 -13 3 -27 0 -30 -6 -5 -7 1 -11 15 -11 18 0 19 -2 9 -15 -17
-20 -5 -32 15 -15 13 10 15 9 15 -9 0 -14 4 -20 11 -15 6 3 9 17 6 30 -5 26
34 71 52 59 18 -11 12 -59 -9 -78 -19 -16 -27 -37 -14 -37 4 0 13 8 20 17 12
16 13 10 14 -39 0 -32 5 -58 10 -58 6 0 10 26 10 58 1 49 2 55 14 39 7 -9 16
-17 20 -17 13 0 5 21 -14 37 -21 19 -27 67 -9 78 18 12 57 -33 52 -59 -3 -13
0 -27 6 -30 7 -5 11 1 11 15 0 18 2 19 15 9 20 -17 32 -5 15 15 -10 13 -9 15
9 15 14 0 20 4 15 11 -3 6 -17 9 -30 6 -26 -5 -71 34 -59 52 11 18 59 12 78
-9 18 -21 37 -26 37 -10 0 6 -4 10 -10 10 -5 0 -10 5 -10 10 0 6 7 10 15 10 8
0 15 5 15 10 0 6 -7 10 -15 10 -8 0 -15 5 -15 10 0 6 5 10 10 10 6 0 10 5 10
10 0 16 -19 11 -37 -10 -19 -21 -67 -27 -78 -9 -12 18 33 57 59 52 13 -3 27 0
30 6 5 7 -1 11 -15 11 -18 0 -19 2 -9 15 17 20 5 32 -15 15 -13 -10 -15 -9
-15 9 0 14 -4 20 -11 15 -6 -3 -9 -17 -6 -30 6 -33 -28 -60 -75 -59 -45 0 -77
27 -71 59 3 13 0 27 -6 30 -7 5 -11 -1 -11 -15z m120 -104 c26 -32 -13 -81
-47 -59 -23 14 -28 41 -13 59 16 19 44 19 60 0z"/>
<path d="M170 360 c0 -5 5 -10 10 -10 6 0 10 5 10 10 0 6 -4 10 -10 10 -5 0
-10 -4 -10 -10z"/>
<path d="M250 360 c0 -5 5 -10 10 -10 6 0 10 5 10 10 0 6 -4 10 -10 10 -5 0
-10 -4 -10 -10z"/>
<path d="M110 290 c0 -5 5 -10 10 -10 6 0 10 5 10 10 0 6 -4 10 -10 10 -5 0
-10 -4 -10 -10z"/>
<path d="M310 290 c0 -5 5 -10 10 -10 6 0 10 5 10 10 0 6 -4 10 -10 10 -5 0
-10 -4 -10 -10z"/>
<path d="M110 210 c0 -5 5 -10 10 -10 6 0 10 5 10 10 0 6 -4 10 -10 10 -5 0
-10 -4 -10 -10z"/>
<path d="M310 210 c0 -5 5 -10 10 -10 6 0 10 5 10 10 0 6 -4 10 -10 10 -5 0
-10 -4 -10 -10z"/>
<path d="M170 150 c0 -5 5 -10 10 -10 6 0 10 5 10 10 0 6 -4 10 -10 10 -5 0
-10 -4 -10 -10z"/>
<path d="M250 150 c0 -5 5 -10 10 -10 6 0 10 5 10 10 0 6 -4 10 -10 10 -5 0
-10 -4 -10 -10z"/>
</g>
</svg>
