<?xml version="1.0" standalone="no"?>
<!DOCTYPE svg PUBLIC "-//W3C//DTD SVG 20010904//EN"
 "http://www.w3.org/TR/2001/REC-SVG-20010904/DTD/svg10.dtd">
<svg version="1.0" xmlns="http://www.w3.org/2000/svg"
 width="64.000000pt" height="64.000000pt" viewBox="0 0 64.000000 64.000000"
 preserveAspectRatio="xMidYMid meet">

<g transform="translate(0.000000,64.000000) scale(0.100000,-0.100000)"
fill="#000000" stroke="none">
<path d="M474 599 c-3 -6 -17 -8 -30 -5 -19 5 -24 2 -24 -14 0 -14 -7 -20 -21
-20 -16 0 -19 -4 -14 -20 4 -12 1 -27 -5 -35 -10 -12 -10 -18 0 -30 6 -8 9
-23 5 -35 -5 -16 -2 -20 14 -20 15 0 21 -6 21 -21 0 -16 4 -19 20 -14 12 4 27
1 35 -5 12 -10 18 -10 30 0 8 6 23 9 35 5 16 -5 20 -2 20 14 0 15 6 21 21 21
16 0 19 4 14 20 -4 12 -1 27 5 35 10 12 10 18 0 30 -6 8 -9 23 -5 35 5 16 2
20 -14 20 -14 0 -21 6 -21 20 0 16 -5 19 -24 14 -13 -3 -27 -1 -30 5 -4 6 -11
11 -16 11 -5 0 -12 -5 -16 -11z m63 -61 c29 -27 29 -65 1 -95 -27 -29 -65 -29
-95 -1 -29 27 -29 65 -1 95 27 29 65 29 95 1z"/>
<path d="M133 364 c-30 -15 -81 -79 -71 -89 2 -2 31 -16 63 -30 42 -19 72 -26
104 -23 l46 3 3 -62 3 -63 -101 0 c-93 0 -100 -1 -100 -20 0 -19 7 -20 240
-20 233 0 240 1 240 20 0 19 -7 20 -121 20 l-120 0 3 38 3 37 67 7 c48 4 83
15 119 36 l50 29 -27 32 c-57 68 -145 80 -191 26 -36 -41 -30 -59 10 -35 34
21 67 26 67 11 0 -5 -9 -12 -19 -16 -11 -3 -35 -17 -55 -30 l-35 -24 -20 34
c-11 19 -35 42 -53 51 -24 13 -29 19 -16 22 9 2 26 -2 37 -8 31 -16 28 14 -4
45 -28 29 -74 32 -122 9z"/>
</g>
</svg>
